<svg version="1.0" xmlns="http://www.w3.org/2000/svg" width="50px" viewBox="0 0 300 300">
    <path
        d="M132 .6c-8 1-23.8 4.7-31.9 7.6-19.7 6.9-42.7 21.5-57.3 36.5C18.7 69.4 2.6 104.1.6 136c-.5 8.3-.5 8.2 1.4-3.7 5.7-36.8 18.6-63 43-87.4 21.6-21.6 45.3-34.4 76.4-41.1 8.3-1.8 13.3-2.2 28.6-2.2s20.3.4 28.6 2.2c33 7.1 58.1 21.2 78.9 44.3 41.2 45.8 49.7 109.8 22 164.9-1.9 3.9-3.7 7-4 7-.3 0 1.3-3.6 3.6-8.1 4.9-9.9 9.2-22.6 12-36.2 1.7-8.1 2.2-13.7 2.2-26.7 0-19-2-31-7.9-46.6-1.9-5-3.4-9.7-3.4-10.3 0-.6-.4-1.1-.8-1.1-.5 0-1.5-1.8-2.2-4-.7-2.2-1.7-4-2.2-4-.4 0-.8-.5-.8-1.1 0-1.4-9.7-16.3-13.6-20.8-5.1-6-16.7-17.5-21.4-21.2-6.1-4.9-20.3-14-26.7-17.3-8.6-4.3-7.5-2.9 1.5 1.9 13.5 7.2 23.1 14.4 34.2 25.5 20.2 20.1 33.1 43.8 39.2 72.3 3.1 14.6 3.1 40.8 0 55.4-2.7 12.4-7.1 25.2-12.3 35.5-4.2 8.3-4.5 9.3-2.8 8.2 1.3-.8-.1 2-2.5 5.1-1.6 2-1.6 2-1 0 .5-1.7.2-1.6-1.5.5-2.5 3.1-2.7 4.7-.3 2.9 1.5-1.1 1.5-1.1.4.1-.7.8-1.8 1.5-2.4 1.5-.6 0-1.3.6-1.6 1.4-.3.9 0 1.1.8.6.9-.5 1.1-.4.6.4-.4.6-1.1.9-1.6.6-1.1-.7-3.1 2-2.8 3.6.2.7-.2 1.3-.7 1.4-.6 0-4.4 3.5-8.5 7.9-15.7 16.5-34.8 28.9-56.3 36.5-15.8 5.6-27.2 7.4-45.7 7.4-30.9.1-55-7.1-80.1-23.8-65.7-43.7-82.4-132-37.5-198C41.6 57.4 58.1 41 70 33.1c10.2-6.8 12-8.1 8-6.1-10.1 5.2-25.4 17.7-35.1 28.6-18 20.2-29 43.6-34.3 72.9-2.1 11.6-2.9 14.3-4.8 15.9-2.1 1.6-2.3 2.7-2.3 10.5 0 4.7.4 12 .8 16.1.5 4.1.9 8.5.9 9.7 0 1.3.5 2 1 1.7.7-.4.8.6.3 2.7-.4 2.1-.3 2.9.3 2.1.5-.8 1.4.6 2.6 4.5C18.5 227 44.9 256.8 82 276.1c4.7 2.4 8.7 4.6 9 4.9.9.9 11.2 4.8 18.5 7 11.5 3.5 21.2 5.1 31.1 5.3l9.4.2v5.5h9.9c8.9 0 25-2.2 27.6-3.8.5-.3 1.6-.7 2.5-.7 3-.3 13-3.8 13-4.6 0-.5.7-.6 1.5-.3.8.4 1.5.1 1.5-.6 0-.6.5-.8 1-.5.6.3 1 .2 1-.3s.6-.9 1.4-.9c2.2 0 7.6-2.5 7.6-3.5 0-.5.5-.6 1-.3.6.3 1 .1 1-.5s.4-.9 1-.5c.5.3 1.8-.3 2.9-1.4 1.1-1.1 2.2-1.7 2.5-1.4.3.4.6.1.6-.6s.5-.9 1-.6c.6.3 1.3-.1 1.6-.9.3-.9 1-1.4 1.4-1.1.4.3 1.1-.2 1.4-1.1.3-.8 1-1.3 1.5-1 .5.3 1.2-.1 1.5-.9.3-.8 1-1.4 1.5-1.3.5.2 1.7-.6 2.6-1.7.9-1.1 1.3-1.3.9-.5-.3.8.8-.1 2.5-2 1.8-1.9 2.9-2.8 2.6-2-.4.8.8-.2 2.5-2.2 1.8-2.1 3.5-3.6 3.9-3.3.8.4 7.8-6.3 8.3-8 .2-.6.7-.9 1.1-.7.5.1.6-.2.3-.7-.4-.5 1.1-2.4 3.1-4.1 2.1-1.8 3.1-2.9 2.3-2.5-.8.3-.2-.5 1.3-1.9s2.4-2.6 2-2.6c-.4-.1.2-.9 1.4-1.9 1.2-1 1.9-2.1 1.6-2.5-.3-.3.2-.8 1.1-1.2.9-.3 1.3-1 1-1.5-.3-.5.2-1.2 1-1.5.9-.3 1.3-1 1.1-1.5-.3-.4.3-1.7 1.5-2.9 1.1-1.1 1.7-2 1.4-2-.3 0 .3-1.4 1.3-3 .9-1.7 2.1-3 2.6-3 .4 0 .5-.5.2-1-.3-.6-.1-1 .5-1s.8-.5.5-1c-.3-.6-.1-1 .5-1s.8-.5.5-1c-.3-.6-.2-1 .4-1 .6 0 .8-.6.5-1.4-.3-.7.1-2 .8-2.7.7-.8 1.5-2.3 1.6-3.4.2-1.1.8-2.1 1.2-2.3.5-.2.6-1 .3-1.8s0-1.4.6-1.4.8-.7.5-1.5c-.4-.8-.1-1.5.5-1.5s.8-.7.5-1.5c-.4-.8-.1-1.5.5-1.5s.8-.7.5-1.5c-.4-.8-.1-1.5.6-1.5s.9-.8.5-2-.2-2 .5-2 1-.7.7-1.5c-.4-.8-.2-1.7.4-2.1.6-.3.8-1.3.5-2.1-.3-.8-.3-2 .1-2.6 1.2-1.9 1.4-4.9 1.6-30.2.2-22.3 0-24.7-2.2-33.5-7-28.1-20.5-51.8-41-72-20.6-20.2-43.8-33-72.1-39.7-8.7-2-13.6-2.5-29-2.8-10.2-.2-20.1-.1-22 .1zM5 153c0 1.1-.4 2-1 2-.5 0-1-.9-1-2s.5-2 1-2c.6 0 1 .9 1 2zm.8 5.8c.2 1.2-.1 2.2-.7 2.2s-1.1-.4-1.1-.9-.3-1.7-.7-2.7c-.4-1.2-.2-1.5.8-1.2.8.2 1.5 1.4 1.7 2.6zm.6 7.9c.6 4.4.2 6.3-1 5.1-1-1-1.6-9.8-.6-9.8.5 0 1.2 2.1 1.6 4.7zm.9 7.9c-.3.8-.1 2.5.5 3.7 1.6 3.2 4.2 15.8 3.1 15.2-1-.7-4.3-11-5.3-16.8-.6-2.9-.4-3.7.8-3.7 1 0 1.3.6.9 1.6zm5.7 22.6c0 1.9-.2 2-1 .8-1.3-1.9-1.3-3 0-3 .6 0 1 1 1 2.2zm2 3.7c0 .5.3 1.8.6 2.8.5 1.6.4 1.6-1-.1-1.8-2.3-2-3.6-.6-3.6.6 0 1 .4 1 .9zm2.7 6.6c.9 2.4-.1 2.7-1.5.5-.8-1.3-.8-2-.2-2 .6 0 1.3.7 1.7 1.5zm2.3 5.6c0 .6-.4.7-1 .4-.5-.3-1-1.1-1-1.6 0-.6.5-.7 1-.4.6.3 1 1.1 1 1.6zm3 6c0 .6-.4.7-1 .4-.5-.3-1-1.1-1-1.6 0-.6.5-.7 1-.4.6.3 1 1.1 1 1.6zm253.2 5.9c-.9 1.6-2 3-2.4 3-.4 0 .1-1.3 1-3 .9-1.6 2-3 2.4-3 .4 0-.1 1.3-1 3zm-7.2 10.4c-2.9 4.3-5 6.4-5 5.1 0-.7 7.2-9.5 7.8-9.5.1 0-1.1 2-2.8 4.4zm-6.2 8.6c-.7 1.1-2 2-2.8 2-1.1-.1-.8-.6.9-2 3-2.5 3.4-2.5 1.9 0zm-4.8 5.5c-.7.8-1.7 1.5-2.3 1.5-.5 0-.2-.9.8-2 2.1-2.3 3.5-1.9 1.5.5zm-3 2.9c0 .3-1.5 1.5-3.2 2.7l-3.3 2.3 2.4-2.7c2.2-2.4 4.1-3.5 4.1-2.3zm3 .9c0 .2-1.7 1.9-3.7 3.8l-3.8 3.4 3.4-3.8c3.3-3.4 4.1-4.2 4.1-3.4zm-10.5 6.7c-1 1.1-2.5 2-3.3 2-1.2 0-1.2-.4.3-2 1-1.1 2.5-2 3.3-2 1.2 0 1.2.4-.3 2zm-6 5c-.9 1.5-6.2 4-6.9 3.3-.3-.4-.6.1-.6.9 0 1.9-3.7 4.5-7.6 5.4l-2.9.6 3.3-2.3c1.8-1.3 5.2-3.8 7.5-5.6 4-3 8.5-4.5 7.2-2.3zm-21 13.6c-2.8 1.3-5.6 2.8-6.3 3.4-1.6 1.4-11.5 5-13.7 5-.8 0-1.5.4-1.5 1 0 .5-1.7 1.4-3.7 2-3.4.9-17.7 4.4-22.8 5.6-1.1.2-6.4.7-11.9 1.1-8.2.5-9.8.4-9.4-.8.3-1 3.3-1.6 10.9-2.1 5.7-.4 11.1-.9 11.9-1.1.8-.2 3.3-.7 5.5-1.1 2.2-.5 5.9-1.4 8.3-2.2 2.3-.8 5.7-1.4 7.4-1.4 1.7 0 2.8-.3 2.5-.7-.8-.7 9.9-5.3 12.5-5.3.9 0 1.8-.4 2-.9.6-1.5 10.2-5.9 11.7-5.3 1 .4-.2 1.4-3.4 2.8z" />
    <path
        d="M149.3 7.7c.9.2 2.3.2 3 0 .6-.3-.1-.5-1.8-.5-1.6 0-2.2.2-1.2.5zM134.8 8.7c1.2.2 3.2.2 4.5 0 1.2-.2.2-.4-2.3-.4s-3.5.2-2.2.4zM160.8 8.7c1.2.2 3.2.2 4.5 0 1.2-.2.2-.4-2.3-.4s-3.5.2-2.2.4zM127.3 9.7c.9.2 2.3.2 3 0 .6-.3-.1-.5-1.8-.5-1.6 0-2.2.2-1.2.5zM170.3 9.7c.9.2 2.3.2 3 0 .6-.3-.1-.5-1.8-.5-1.6 0-2.2.2-1.2.5zM121.8 10.7c.6.2 1.8.2 2.5 0 .6-.3.1-.5-1.3-.5-1.4 0-1.9.2-1.2.5zM128.5 11.4C77.8 19.8 36.6 53.6 18.3 102c-9.3 24.4-10.7 56.3-3.8 83.5 8.3 32.7 31.5 65 59 82 4.7 2.9 2.7 1.2-6.4-5.5-15.8-11.7-28.4-26.1-38.1-43.6-6.4-11.5-10.5-22.7-13.8-37.9-2.3-10.4-2.6-14.3-2.6-29 0-19.6 2-31.9 7.9-49 6.2-17.7 20.7-39.4 35.1-52.3 3.3-2.9 7.4-6.6 9.2-8.2 11.8-10.8 45.4-26.2 59.7-27.4 2.2-.1 4.7-.6 5.5-.9.8-.3 5.1-.8 9.4-1.1 7.5-.5 7.9-.5 6.3 1.1-.9.9-3.2 1.8-5.1 1.9-1.8.2-5.3.6-7.7.9-2.4.3-5.8.7-7.5.9-5 .6-21 5.4-27.2 8.3-3.1 1.4-6.1 2.6-6.7 2.7-.5.1-3.9 1.9-7.5 4C64.7 44.1 48.1 59.7 37.6 76c-2.7 4.1-6 9.1-7.3 11.1-1.3 2-2.3 4-2.1 4.5.1.5-.9 3.1-2.1 5.9-2.3 4.8-5.2 13.7-7.2 21.9-.5 2.1-1.4 4.8-2 5.9-.8 1.4-.8 1.8 0 1.2.8-.4 1 .1.6 1.7-2.2 9.3-2.4 18.5-1 38.8 1.6 23.4 8 42.4 20.2 60.8 7.3 11.1 22.9 27.2 33.5 34.7 9.4 6.7 11.1 8.1 8.6 7.2-2.5-.9-2.2 0 .3 1.4 1.5.8 1.9.8 1.5 0-1.2-1.8.6-1.2 5.9 1.9 5.2 3.1 5.5 4.1.5 1.5-1.7-.9-3-1.3-3-1.1 0 1.2 6 3.5 7.6 2.9 1.1-.4 1.5-.3 1.1.4-.5.7.1.9 1.5.6 1.7-.3 1.9-.2 1 .5-1.8 1.3.7 2.3 4 1.5 1.6-.3 1.9-.2 1 .5-1.1.7-1.1 1 .2 1.5.9.4 2.3.3 3.3 0 1.1-.4 1.4-.3.9.5-.4.7-.2 1.2.3 1.2.6 0 1.1-.7 1.1-1.6 0-1.2-.6-1.5-2.6-1-1.7.5-2.3.3-1.9-.4.4-.6-1-1.7-3.2-2.6-6.5-2.8-7.7-3.4-10.8-5.4-1.6-1.1-3.7-2.3-4.5-2.7-.8-.3-2.5-1.4-3.6-2.2-1.2-.9-3.2-2.3-4.4-3.1-1.2-.8-3.1-2.3-4.2-3.3-1.2-.9-2.4-1.7-2.7-1.7-1.2 0-17.9-16.8-17.3-17.4.3-.4 2.4 1.3 4.7 3.6 2.3 2.4 5.4 5.2 7 6.3 1.6 1.1 3.3 2.4 4 3 1.4 1.3 2.7 2.1 14.9 9.5 22.7 13.7 47.4 19.9 74.6 18.7 40.7-1.8 76.7-21.1 101-53.8 3.4-4.6 7.4-8.9 8.8-9.4 2.4-1 1.4-1.7-14.1-10.4-9.2-5.1-16.4-9.7-16.1-10.2.3-.5-.3-.6-1.2-.2-1.3.5-1.5.3-.9-.7.5-.9.4-1.1-.3-.6-1.5.9-5.4-1.2-4.7-2.4.4-.6-.1-.7-1.1-.3-1.1.4-1.5.3-1-.5.3-.6.1-1.4-.5-1.8-.8-.4-.9-.3-.5.4.9 1.5.1 1.5-2.5.1-1.1-.5-1.7-1.4-1.4-1.9.3-.5-.5-1.4-1.7-2-2.2-1.1-2.2-1-.4.4 2.5 2 1.4 2-2.4.1-3.1-1.6-4.2-3.2-1.5-2.1 2.2.8 1.8-.2-.6-1.5-1.5-.8-1.9-.8-1.5 0 1 1.5 0 1.4-3.5-.5-1.7-.8-2.9-1.8-2.6-2.1.3-.2 1.5 0 2.6.7 1.2.6 2.1.8 2.1.6 0-.3-1.4-1.3-3.1-2.2-1.7-.8-2.8-1.1-2.5-.5.4.6.4 1.1 0 1.1-.3 0-12.6-6.9-27.2-15.2-14.7-8.4-27-15.5-27.4-15.6-.4-.2-.7 3.4-.7 8l.1 8.3 1.2-4.8c.9-4 1.3-4.6 2.5-3.5 1.1 1.1 1.2.9.6-1.2-.7-2-.5-2.3.6-1.4.8.7 4.3 2.7 7.9 4.6 8.9 4.7 14.2 7.8 16 9.2.8.7 2.3 1.6 3.2 1.9.9.3 6.5 3.4 12.5 6.8 5.9 3.4 14.2 8.1 18.3 10.4 17.7 9.8 24.5 13.8 24.8 14.7.2.4.9.8 1.5.8.7 0 2.8 1 4.7 2.2 1.9 1.2 3.7 2.2 4 2.3 1.5.2 5 2.7 5 3.5 0 .7-15.5-5.1-27.5-10.5-2.2-1-4.9-2.1-6-2.5-1.1-.4-7.5-3.1-14.2-5.9-6.6-2.8-12.4-5.1-12.7-5.1-.4 0-2.3-.7-4.4-1.6-2-1-4.1-1.8-4.7-1.9-.5-.2-2.8-1.1-5-2-2.2-1-4.2-1.9-4.5-2-1.7-.6-4.9-1.8-7-2.7-10.1-4.1-16.3-5.9-17.3-4.9-.7.7-.2 1.3 1.7 2.1 5.8 2.2 108.1 43.4 108.5 43.6 1 .8-10.4 15-18.5 23-18.3 18.2-40.5 30-66.7 35.5-14.5 3.1-37 3.1-51.7 0-30.6-6.5-57.8-22.9-76-45.9-3.3-4.2-7-8.8-8.1-10.1-1.1-1.3-1.8-2.4-1.7-2.5.2-.1 24.9-10 55-22 30.1-11.9 55.1-22.3 55.5-22.9.5-.7.7-6.3.4-12.4l-.6-11.3-23.8 13.6c-13.1 7.5-24 13.4-24.3 13.1-.3-.2 10.1-6.6 23.1-14.2 12.9-7.6 23.9-14.3 24.2-14.9.4-.6-.4-.4-1.7.5-1.4.9-13.4 8-26.7 15.8-13.4 7.9-24.3 14.5-24.3 14.7 0 .3.9 0 2.1-.6 1.1-.7 2.3-.9 2.6-.7.5.5-4.9 3.7-6.2 3.7-.3 0-.3-.5.1-1.2.8-1.3-8.4 3.7-10.1 5.5-.5.6 1.2-.2 3.8-1.7 2.7-1.5 5.1-2.6 5.3-2.3.5.5-11.9 7.7-13.2 7.7-.4 0 .1-.7 1.2-1.6 1.8-1.4 1.8-1.5-.4-.4-1.2.6-2 1.5-1.7 2 .3.5-.3 1.4-1.4 1.9-2.6 1.4-3.4 1.4-2.5-.1.4-.7.3-.8-.5-.4-.6.4-.8 1.2-.5 1.8.5.8.1.9-1 .5-1-.4-1.5-.3-1.1.3.7 1.2-3.2 3.3-4.7 2.4-.7-.5-.8-.3-.3.6.6 1 .4 1.2-.9.7-1-.4-1.5-.3-1.1.3.7 1.2-3.2 3.3-4.7 2.4-.6-.4-.8-.3-.5.3.5.7-21.2 13.9-26.5 16.1-.4.2-.8-.7-.8-2 0-1.9 2.4-4.3 10.7-10.8 5.9-4.6 11.3-8.3 12-8.3.6 0 1.1-.5 1-1.1-.1-.6.7-1.1 1.8-1.1 1.1-.1 1.9-.6 1.8-1.2-.2-.8 64.1-51.5 69.3-54.6.7-.4 3.7.7 7.3 2.8 3.4 2 7.7 4.3 9.6 5.1l3.5 1.4-.2-33.2-.3-33.3-.2 31.5c-.2 17.3-.7 31.8-1.2 32.3-1.2 1.2-17-8.3-17.1-10.3 0-.8 3.4-27.6 7.7-59.5 6.5-49.7 7.9-58.3 9.6-60.2 1.1-1.2 2.3-2 2.7-1.8.4.2.8 30.5.9 67.2.1 36.7.4 66.9.5 67.1.2.1 4.5-2 9.6-4.7l9.2-5.1 48.7 37.5 48.6 37.5 2.7-5.8c3.6-7.5 9.2-24.9 10.9-33.7.8-3.9 1.4-13.4 1.4-21.2 0-7.9.1-14.3.1-14.3.1 0 1.4 1.9 3 4.2 2.8 3.9 2.9 4.6 2.8 14.2-.5 42.4-24.8 85.7-61.3 109.6-10.2 6.6-11.1 7.4-5.6 4.4 11.9-6.4 27.3-19.6 37-31.6 13.6-16.9 23.2-36.7 28.3-58.1 2.4-10.1 2.6-13.1 2.6-29.7 0-20.6-1.7-31.2-7.5-47.7-16-45.3-53.6-78.8-100.9-90-13.1-3-39.7-4-52.5-1.9zm48.5 3.2c34 7.3 67.8 32.2 86.5 63.9 4.9 8.2 12 24.1 13 29 .3 1.6-.7-.4-2.3-4.5-12.8-33.2-36.5-58.8-68.6-74-16.8-8-34.1-12.8-46.8-13-3.9 0-3.5 1.8.5 2.4 30 4.3 45 9.6 64.9 22.8 22.1 14.8 42.8 41.9 50.4 66.1 1.2 3.9 2.1 5.3 2.7 4.5.6-.9.7-.8.3.4-.3 1 .3 5.7 1.4 10.5 3.9 18.7 3.4 40.4-1.4 59.6-2.8 10.8-9.8 28.4-11.2 27.8-.8-.3-87.3-67.9-92.3-72.1-1.5-1.2-3.3-11.9-10.1-60.4-7.6-53.4-8.6-59.2-10.7-61.6-1.3-1.6-2.3-3-2.3-3.3 0-1.9 12.9-.9 26 1.9zM156.5 45c2 15.1 3.8 28.6 4 30 .5 3.2 5.2 38.7 6.6 50.2.6 4.8.9 9.4.6 10.2-.3.9-2.4 2.4-4.6 3.6l-4.1 2 .5-3.2c.5-3.1.5-3.1-1 .7-1.5 3.9-4.1 7.3-4.8 6.4-.3-.2-.7-28.9-1.1-63.7-.3-34.9-.9-63.9-1.2-64.5-.5-.8-.4-.9.4-.2.5.5 2.6 13.4 4.7 28.5zM144 19.2c-.1 3.1-16.6 117.8-17 118.1-.3.2-13.1 10.3-28.5 22.3-15.4 12.1-36.5 28.6-46.8 36.7l-18.8 14.8-2.6-5.8C22.6 188 19 172.5 18.5 154 17.5 117 31 82.9 57 57c21.7-21.7 49.6-34.9 81-38.3 1.9-.2 4.1-.5 4.8-.5.6-.1 1.2.4 1.2 1zm121.8 57.3c-.3.3-1.3-.7-2.3-2.2l-1.7-2.8 2.3 2.2c1.2 1.2 2 2.5 1.7 2.8zm2.7 3.5c1 1.1 1.3 2 .7 2-.6 0-1.6-.9-2.2-2-.6-1.1-.9-2-.7-2 .2 0 1.2.9 2.2 2zm4.2 8c1.2 2.8 1.8 5 1.4 5-.6 0-2-2.6-4.9-9.2-.2-.5 0-.8.5-.8.4 0 1.8 2.3 3 5zm4.7 10.1c.1.8.7 2.4 1.4 3.6.7 1.2 1.1 2.6 1.1 3-.1.4.3 2.1 1 3.8 1.9 4.5 3.5 12.4 2.8 13.2-1.1 1-1.6 0-2.7-5.3-1.7-8.6-1.8-9.2-3.1-11.6-.7-1.3-1.2-2.4-1.1-2.5.1-.2-.5-1.8-1.3-3.7-.8-2-1.5-3.9-1.5-4.3 0-1.2 3.1 2.3 3.4 3.8zm8 29.2c.2 1.9.7 4 1 4.6.4.6.1 1.1-.7 1.1-1.5 0-3.2-7.3-2.1-9.1.9-1.5 1.4-.5 1.8 3.4zm1.6 10.6c0 2.1-1.3.4-1.7-2.2-.2-1.7-.1-1.9.7-.7.5.8 1 2.1 1 2.9zm-140.1 26.6.1 8.5-5.3 2.4c-8.1 3.5-79.6 33.1-95.2 39.2-9.9 4-8.2 2.2 4.7-4.9 17.6-9.7 21.4-11.8 39.3-22 8.8-5.1 16.4-9.4 17-9.6.5-.2 7.9-4.4 16.4-9.3 8.4-4.8 15.6-8.8 16-8.8.3 0 1.7-.9 3.1-2 1.4-1.1 2.8-2 3.1-2 .4 0 .7 3.8.8 8.5zM36.5 220.9c.3.5.1 1.2-.4 1.5-.5.3-1.1-.1-1.5-.9-.6-1.6.9-2.1 1.9-.6zm1.9 4.7c.3.8.2 1.2-.4.9-.6-.3-1-1-1-1.6 0-1.4.7-1.1 1.4.7zm3.6 4.9c1.4 1.9 1.4 1.9-.2.6-1-.7-1.8-1.8-1.8-2.4 0-.6.1-.8.3-.6.1.2.9 1.3 1.7 2.4zm6.9 8.9c-.3.3-1.8-1.2-3.3-3.2l-2.9-3.7 3.4 3.2c1.8 1.8 3.1 3.5 2.8 3.7zM175.8 10.7c.6.2 1.8.2 2.5 0 .6-.3.1-.5-1.3-.5-1.4 0-1.9.2-1.2.5zM116.8 11.7c.6.2 1.8.2 2.5 0 .6-.3.1-.5-1.3-.5-1.4 0-1.9.2-1.2.5zM180.8 11.7c.6.2 1.8.2 2.5 0 .6-.3.1-.5-1.3-.5-1.4 0-1.9.2-1.2.5zM186.5 13c1.1.5 2.7.9 3.5.9.9 0 .8-.4-.5-.9-1.1-.5-2.7-.9-3.5-.9-.9 0-.8.4.5.9zM109.8 13.7c.7.3 1.6.2 1.9-.1.4-.3-.2-.6-1.3-.5-1.1 0-1.4.3-.6.6z" />
    <path
        d="M99 17c-.8.5-1 1-.5 1 .6 0 1.7-.5 2.5-1s1.1-1 .5-1c-.5 0-1.7.5-2.5 1zM201.9 18.1c2.4 1.1 4.6 1.8 4.8 1.5.4-.4-7.3-3.6-8.5-3.5-.4 0 1.3.9 3.7 2zM94 19c-.8.5-1 1-.5 1 .6 0 1.7-.5 2.5-1s1.1-1 .5-1c-.5 0-1.7.5-2.5 1zM85.8 22.6c-2.7 1.3-4.8 2.7-4.8 2.9 0 .5 9.9-4.2 10.9-5.1 1.3-1.1-2 0-6.1 2.2zM141.2 62c0 1.4.2 1.9.5 1.2.2-.6.2-1.8 0-2.5-.3-.6-.5-.1-.5 1.3zM140.2 71c0 1.9.2 2.7.5 1.7.2-.9.2-2.5 0-3.5-.3-.9-.5-.1-.5 1.8zM139.3 80.5c0 2.2.2 3 .4 1.7.2-1.2.2-3 0-4-.3-.9-.5.1-.4 2.3zM138.3 89.5c0 2.7.2 3.8.4 2.2.2-1.5.2-3.7 0-5-.2-1.2-.4 0-.4 2.8zM135.7 111c-1 9.1-2.1 18.7-2.4 21.5-.3 2.7-.3 4.8 0 4.5.8-.8 4.9-36.5 4.5-39.7-.2-1.6-1.1 4.6-2.1 13.7zM119 149.5c-6.3 4.7-17.3 12.8-24.5 18-7.1 5.2-14.3 10.7-16 12.1l-3 2.6 3.5-2.4c6.2-4.3 51.5-37.1 52.5-38 .6-.5.6-.8 0-.8s-6.2 3.9-12.5 8.5zM171.6 143.9c.9.8 20.6 15.1 27.4 19.9 3.5 2.4 3.5 2.4.9.1-3.9-3.5-27.6-20.9-28.5-20.9-.5 0-.4.4.2.9zM161 145c-.8.5-1 1-.5 1 .6 0 1.7-.5 2.5-1s1.1-1 .5-1c-.5 0-1.7.5-2.5 1zM153.6 150.8c.7.7 42.8 25.4 45.9 27 .7.3.7.2 0-.5-1.2-1.2-45.5-27.3-46.3-27.3-.3 0-.2.4.4.8zM203 166.4c0 .2 1.4 1.4 3 2.6 1.7 1.2 3 1.9 3 1.6 0-.2-1.3-1.4-3-2.6-1.6-1.2-3-1.9-3-1.6zM210 171.4c0 .2.8 1 1.8 1.7 1.5 1.3 1.6 1.2.3-.4s-2.1-2.1-2.1-1.3zM214 174.4c0 .2.8 1 1.8 1.7 1.5 1.3 1.6 1.2.3-.4s-2.1-2.1-2.1-1.3zM201 178.4c0 .3.9 1 2 1.6 1.1.6 2 .8 2 .6 0-.3-.9-1-2-1.6-1.1-.6-2-.8-2-.6zM72.9 183.7c-1.3 1.6-1.2 1.7.4.4.9-.7 1.7-1.5 1.7-1.7 0-.8-.8-.3-2.1 1.3zM6 192.8c0 2.3 7 19.5 11.6 28.2 6.5 12.3 14.6 23.1 25.4 34.1 19.7 20 42.7 33.3 69.8 40.5 7.5 2 12.7 2.6 23.2 2.9 11.8.3 12.6.3 6-.5-15.6-1.9-40.5-7.2-42.4-9.1-.6-.5-1.8-.9-2.7-.9-.9 0-3.4-.8-5.6-1.9-2.1-1-6.5-3-9.8-4.5-8.9-4.1-24-14.5-32.8-22.6-17.3-16-31.4-37.2-39.6-59.5-1.7-4.4-3-7.4-3.1-6.7zM271.7 222.7c-.4.3-.7 1.1-.7 1.7 0 .6.5.5 1.2-.2.6-.6.9-1.4.7-1.7-.3-.3-.9-.2-1.2.2zM211 275.5c-1.4.8-2 1.4-1.4 1.5.5 0 1.9-.7 3-1.5 2.4-1.8 1.6-1.9-1.6 0zM204 278.5c-1.4.8-2 1.4-1.5 1.4.6 0 2.1-.6 3.5-1.4 1.4-.8 2.1-1.4 1.5-1.4-.5 0-2.1.6-3.5 1.4zM198 281c-.8.5-1 1-.5 1 .6 0 1.7-.5 2.5-1s1.1-1 .5-1c-.5 0-1.7.5-2.5 1z" />
    <path
        d="M108.2 282.9c-1 .6-.7 1 1.3 1.5 1.5.4 3 .5 3.3.1.3-.3-.2-.5-1-.5-.9 0-1.8-.4-2-1-.2-.5-.9-.6-1.6-.1zM190.8 283.7c.7.3 1.6.2 1.9-.1.4-.3-.2-.6-1.3-.5-1.1 0-1.4.3-.6.6zM114.8 285.7c.7.3 1.6.2 1.9-.1.4-.3-.2-.6-1.3-.5-1.1 0-1.4.3-.6.6zM183.8 285.7c.7.3 1.6.2 1.9-.1.4-.3-.2-.6-1.3-.5-1.1 0-1.4.3-.6.6zM120 287c1.4.4 3.6.8 5 .8 2.2 0 2.2-.1-.5-.8-1.6-.4-3.9-.8-5-.8-1.6 0-1.5.2.5.8zM179.8 286.7c.7.3 1.6.2 1.9-.1.4-.3-.2-.6-1.3-.5-1.1 0-1.4.3-.6.6zM173.8 287.7c.6.2 1.8.2 2.5 0 .6-.3.1-.5-1.3-.5-1.4 0-1.9.2-1.2.5zM129.3 288.7c.9.2 2.5.2 3.5 0 .9-.3.1-.5-1.8-.5-1.9 0-2.7.2-1.7.5zM167.3 288.7c.9.2 2.3.2 3 0 .6-.3-.1-.5-1.8-.5-1.6 0-2.2.2-1.2.5zM138.3 289.7c2 .2 5.4.2 7.5 0 2-.2.3-.4-3.8-.4s-5.8.2-3.7.4zM152.7 289.7c1.8.2 5 .2 7 0 2.1-.2.7-.4-3.2-.4-3.8 0-5.5.2-3.8.4z" />
</svg>